<?xml version="1.0" encoding="UTF-8"?>
<svg width="220" height="220" viewBox="0 0 220 220" xmlns="http://www.w3.org/2000/svg">
  <!-- Blue square 200x200 -->
  <rect x="10" y="10" width="200" height="200" rx="10" fill="#2563eb"/>
  
  <!-- Shuriken with 15px thick lines -->
  <g transform="translate(110, 110) scale(0.33) translate(-256, -256)">
    <path 
      fill="none" 
      stroke="#ffffff" 
      stroke-width="45" 
      stroke-linejoin="miter"
      stroke-linecap="butt"
      d="M501.415,252.082l-177.277-64.219L259.929,10.585C259.26,8.756,257.63,7.837,256,7.837
      s-3.26,0.92-3.918,2.748l-64.219,177.277L10.585,252.071c-3.668,1.327-3.668,6.52,0,7.847l177.277,64.219l64.209,177.277
      c0.669,1.829,2.299,2.748,3.929,2.748s3.26-0.92,3.918-2.748l64.219-177.277l177.277-64.209
      C505.083,258.602,505.083,253.409,501.415,252.082z"
    />
  </g>
</svg>
